{"title":"Accidental.Love.2015.WEBRip.480p.x264.AAC-VYTO [P2PDL]","uid":11700716,"size":365727867,"categoryP":"video","categoryS":"movies","magnet":"?xt=urn:btih:cd9de3d9156575c606260ac209110c68e34faeb3&amp;dn=Accidental.Love.2015.WEBRip.480p.x264.AAC-VYTO+%5BP2PDL%5D&amp;tr=udp%3A%2F%2Ftracker.openbittorrent.com%3A80&amp;tr=udp%3A%2F%2Fopen.demonii.com%3A1337&amp;tr=udp%3A%2F%2Ftracker.coppersurfer.tk%3A6969&amp;tr=udp%3A%2F%2Fexodus.desync.com%3A6969","seeders":1,"leechers":2,"uploader":"ValidusVyto","files":6,"time":1423918931,"description":"Accidental.Love.2015.WEBRip.480p.x264.AAC-VYTO\n\n\nGenre: Comedy | Romance\nIMDb: http://www.imdb.com/title/tt1137470/\n\nFormat                      : MPEG-4\nFile size                   : 341 MiB\nDuration                    : 1h 40mn\nOverall bit rate            : 474 Kbps\n\nVideo\nFormat                      : AVC\nBit rate                    : 438 Kbps\nWidth                       : 720 pixels\nHeight                      : 400 pixels\nDisplay aspect ratio        : 16:9\nFrame rate mode             : Constant\nFrame rate                  : 24.000 fps\nBit depth                   : 8 bits\nStream size                 : 315 MiB (92%)\nWriting library             : x264 core 142\n\nAudio\nFormat                      : AAC\nBit rate                    : 32.0 Kbps\nChannel(s)                  : 2 channels\nChannel positions           : Front: L R\nSampling rate               : 48.0 KHz\nStream size                 : 23.0 MiB (7%)\nLanguage                    : English\n\nSubtitle                    : Yes(English)\n &lt;a href=&quot;\nhttp://someimage.com/hERMxcU&quot; rel=&quot;nofollow&quot; target=&quot;_NEW&quot;&gt;\nhttp://someimage.com/hERMxcU&lt;/a&gt; &lt;a href=&quot;\nhttp://someimage.com/dpTtb63&quot; rel=&quot;nofollow&quot; target=&quot;_NEW&quot;&gt;\nhttp://someimage.com/dpTtb63&lt;/a&gt; &lt;a href=&quot;\nhttp://someimage.com/q2xI7ia&quot; rel=&quot;nofollow&quot; target=&quot;_NEW&quot;&gt;\nhttp://someimage.com/q2xI7ia&lt;/a&gt; &lt;a href=&quot;\nhttp://someimage.com/UrF08IG&quot; rel=&quot;nofollow&quot; target=&quot;_NEW&quot;&gt;\nhttp://someimage.com/UrF08IG&lt;/a&gt; &lt;a href=&quot;\nhttp://someimage.com/G72YMO9&quot; rel=&quot;nofollow&quot; target=&quot;_NEW&quot;&gt;\nhttp://someimage.com/G72YMO9&lt;/a&gt; &lt;a href=&quot;\nhttp://someimage.com/VaqyvEz&quot; rel=&quot;nofollow&quot; target=&quot;_NEW&quot;&gt;\nhttp://someimage.com/VaqyvEz&lt;/a&gt; &lt;a href=&quot;\nhttp://someimage.com/yxdyD6W&quot; rel=&quot;nofollow&quot; target=&quot;_NEW&quot;&gt;\nhttp://someimage.com/yxdyD6W&lt;/a&gt; &lt;a href=&quot;\nhttp://someimage.com/FaiJuEb&quot; rel=&quot;nofollow&quot; target=&quot;_NEW&quot;&gt;\nhttp://someimage.com/FaiJuEb&lt;/a&gt; &lt;a href=&quot;\nhttp://someimage.com/mcwYNYS&quot; rel=&quot;nofollow&quot; target=&quot;_NEW&quot;&gt;\nhttp://someimage.com/mcwYNYS&lt;/a&gt; &lt;a href=&quot;\nhttp://someimage.com/bi84Dp8&quot; rel=&quot;nofollow&quot; target=&quot;_NEW&quot;&gt;\nhttp://someimage.com/bi84Dp8&lt;/a&gt; &lt;a href=&quot;\nhttp://someimage.com/LhpDAdg&quot; rel=&quot;nofollow&quot; target=&quot;_NEW&quot;&gt;\nhttp://someimage.com/LhpDAdg&lt;/a&gt; &lt;a href=&quot;\nhttp://someimage.com/j48vniN&quot; rel=&quot;nofollow&quot; target=&quot;_NEW&quot;&gt;\nhttp://someimage.com/j48vniN&lt;/a&gt; &lt;a href=&quot;\nhttp://someimage.com/f8GZTV2&quot; rel=&quot;nofollow&quot; target=&quot;_NEW&quot;&gt;\nhttp://someimage.com/f8GZTV2&lt;/a&gt; &lt;a href=&quot;\nhttp://someimage.com/aYU6Uxh&quot; rel=&quot;nofollow&quot; target=&quot;_NEW&quot;&gt;\nhttp://someimage.com/aYU6Uxh&lt;/a&gt; &lt;a href=&quot;\nhttp://someimage.com/mF0ZVmj&quot; rel=&quot;nofollow&quot; target=&quot;_NEW&quot;&gt;\nhttp://someimage.com/mF0ZVmj&lt;/a&gt;\n\n----------------------------------------------------------------------------------------------------\n\n\nEncoder Notes: Looking For Early Access To Anything You Can Provide DVDScr, R5, DVDR, BluRay, Direct\nAudio, Music Releases and Seedboxes. If You Got anything to offer please contact us.\n\nWe require dedicated servers, so as to do more and fast releases of movies.\nSupport us by sending us LC - LezHMTo2cYaiztCCcWxB4cNFVNVpWW3GSx","torrent":{"xt":"urn:btih:cd9de3d9156575c606260ac209110c68e34faeb3","amp;dn":"Accidental.Love.2015.WEBRip.480p.x264.AAC-VYTO+%5BP2PDL%5D","amp;tr":["udp%3A%2F%2Ftracker.openbittorrent.com%3A80","udp%3A%2F%2Fopen.demonii.com%3A1337","udp%3A%2F%2Ftracker.coppersurfer.tk%3A6969","udp%3A%2F%2Fexodus.desync.com%3A6969"],"infoHash":"cd9de3d9156575c606260ac209110c68e34faeb3","infoHashBuffer":{"type":"Buffer","data":[205,157,227,217,21,101,117,198,6,38,10,194,9,17,12,104,227,79,174,179]},"announce":[],"urlList":[]}}